<svg width="29" height="29" fill="none" xmlns="http://www.w3.org/2000/svg"><circle cx="14.271" cy="14.271" r="13.771" stroke="#fff"/><path d="M14.27 11.667a2.604 2.604 0 100 5.208 2.604 2.604 0 000-5.208zm0 4.297a1.692 1.692 0 110-3.385 1.692 1.692 0 010 3.385zm2.709-3.785a.607.607 0 100-1.215.607.607 0 000 1.215z" fill="#fff"/><path d="M19.079 10.954a2.594 2.594 0 00-1.484-1.483 3.722 3.722 0 00-1.231-.236c-.543-.024-.714-.03-2.09-.03s-1.552 0-2.09.03c-.42.008-.837.087-1.23.236a2.591 2.591 0 00-1.484 1.483 3.71 3.71 0 00-.236 1.231c-.024.542-.031.714-.031 2.09s0 1.551.031 2.09c.009.422.088.838.236 1.232.264.681.802 1.22 1.484 1.483.392.153.808.24 1.231.254.542.023.714.03 2.09.03s1.552 0 2.09-.03c.42-.009.837-.089 1.232-.236a2.598 2.598 0 001.483-1.484 3.71 3.71 0 00.236-1.231c.024-.542.031-.714.031-2.09s0-1.551-.031-2.09a3.708 3.708 0 00-.237-1.25zm-.687 5.37a2.839 2.839 0 01-.175.95 1.682 1.682 0 01-.964.964c-.302.113-.62.171-.94.176-.536.024-.687.03-2.06.03s-1.513 0-2.058-.03a2.792 2.792 0 01-.94-.176 1.681 1.681 0 01-.969-.963c-.11-.301-.17-.62-.175-.94-.025-.536-.03-.687-.03-2.06 0-1.372 0-1.512.03-2.058.004-.325.062-.646.175-.95.172-.445.524-.795.968-.965.301-.111.62-.17.94-.175.536-.024.687-.031 2.06-.031s1.513 0 2.058.03c.322.005.64.064.94.176.444.17.794.521.965.965.11.3.17.619.175.94.025.535.031.686.031 2.059 0 1.372 0 1.52-.024 2.058h-.007z" fill="#fff"/></svg>