<svg width="29" height="29" fill="none" xmlns="http://www.w3.org/2000/svg"><circle cx="14.271" cy="14.271" r="13.771" stroke="#fff"/><path d="M18.571 12.016c.007.099.007.197.007.295 0 3-2.283 6.457-6.455 6.457a6.412 6.412 0 01-3.485-1.02c.182.021.358.029.548.029 1.06 0 2.037-.359 2.817-.97a2.274 2.274 0 01-2.122-1.573 2.414 2.414 0 001.026-.042 2.269 2.269 0 01-1.82-2.228v-.028a2.29 2.29 0 001.026.288 2.266 2.266 0 01-1.012-1.89c0-.42.112-.807.309-1.144a6.454 6.454 0 004.68 2.375 2.58 2.58 0 01-.057-.52 2.269 2.269 0 013.927-1.553 4.484 4.484 0 001.44-.548c-.168.527-.527.97-.998 1.25.457-.05.9-.175 1.307-.351a4.87 4.87 0 01-1.138 1.173z" fill="#fff"/></svg>