<svg width="29" height="29" fill="none" xmlns="http://www.w3.org/2000/svg"><circle cx="14.271" cy="14.271" r="13.771" stroke="#fff"/><path d="M19.676 11.569a1.411 1.411 0 00-.993-.995c-.882-.242-4.411-.246-4.411-.246s-3.53-.004-4.412.228a1.442 1.442 0 00-.995 1.001c-.232.882-.235 2.712-.235 2.712s-.002 1.839.23 2.712c.129.483.509.864.992.994.891.243 4.411.246 4.411.246s3.53.005 4.412-.227c.482-.13.864-.51.995-.993.233-.881.235-2.71.235-2.71s.011-1.84-.23-2.722zm-6.533 4.395l.003-3.38 2.933 1.693-2.936 1.687z" fill="#fff"/></svg>