<svg xmlns="http://www.w3.org/2000/svg" width="104" height="33" aria-label="логотип компании"><path class="symbol-logo" d="M32 .2c1.3.2 1.9 1.5 1.2 2.6l-2.8 5c-.6 1.2-1 2.6-1 4-.2 2.6 0 5.2-.1 7.7v5.3c0 .7-.3 1.2-.9 1.5L20 31.2l-2.3 1.3c-.6.4-1.3.4-1.9 0L5.1 26.3c-.6-.3-1-.8-1-1.5V12.9a12 12 0 00-1.7-6.4L0 2.5V1.4C.3.7.8.3 1.5.2h9.2c1 .1 1.5.8 1.5 1.7v17.7c0 .7.3 1.2.9 1.6l2.6 1.5c.7.4 1.4.4 2 0l2.8-1.6c.5-.3.7-.8.7-1.4V2c0-.9.6-1.6 1.6-1.7H32z"/><path d="M1.5.2C.8.2.3.7.1 1.4l-.1.2V0h1.5zm21.3 0H32h-9.2zM1.5.2h9.2-9.2z"/><path class="st4" d="M90.4 12.6c2.8 0 4.7 1.8 5.2 3.7 1.1 3.6-1.5 7-5.3 7-2.4-.2-4.1-1.2-5-3.4a5.3 5.3 0 015-7.3h.1zM93 18v-.7c-.3-1.2-1.1-2-2.2-2.1-1.1-.1-2 .4-2.6 1.4-.4 1-.4 2 0 3a2.5 2.5 0 004.4.2c.3-.6.4-1.1.4-1.8zm-21.3 3.9l-.4.4c-1 1.1-2.3 1.2-3.7.8-1.7-.5-2.6-1.8-2.6-3.7V13c0-.2 0-.2.2-.2h2.4c.2 0 .3 0 .3.2a459.4 459.4 0 000 6.2c.2.7.4 1.3 1.1 1.5a2 2 0 002-.5c.6-.5.7-1.2.7-1.9v-5.2c0-.3 0-.3.3-.3a64.5 64.5 0 002.6.2v9.8c0 .2 0 .3-.2.3a100.9 100.9 0 00-2.7-.3v-1z"/><path d="M57.3 17.7v-5.1c0-.2-.1-.3-.3-.3h-3.3c-.2 0-.3 0-.2-.2V10c0-.2 0-.3.2-.3h10.1c.2 0 .3 0 .3.3v2c0 .3-.1.3-.3.3h-3.2c-.3 0-.3 0-.3.3v10.2c0 .2 0 .3-.3.3h-2.5c-.2 0-.2 0-.2-.3v-5.1z"/><path class="st4" d="M48.6 19.1l.9-2.2 1.5-4 .3-.1h2.5c.3 0 .3 0 .2.2l-3.5 9-.4.9-.2.2h-2.6c-.2 0-.3-.1-.3-.3L43.5 14l-.4-1v-.2h2.7c.2 0 .2.1.3.2l1.8 4.7.6 1.5zM83 20l1 2v.1c-1.7 1.5-3.7 1.4-5 .4-1-.7-1.3-1.7-1.3-2.9v-4.5c0-.2 0-.2-.3-.2h-.7c-.2 0-.2 0-.2-.2a45.4 45.4 0 00.2-2l.7.1c.2 0 .3 0 .3-.3V10c0-.2 0-.3.2-.3h2.4c.2 0 .3 0 .3.3v2.6c0 .1 0 .2.2.2h2c.2 0 .3 0 .3.2v1.6c0 .2-.1.3-.3.3h-2c-.2 0-.2 0-.2.2v4.4c0 1 .8 1.5 1.7 1 .2 0 .3-.2.5-.3l.2-.2zm17.7-5.9a5 5 0 012.2-1.3c1-.3 1-.3 1 .6a90.8 90.8 0 00-.3 2h-.7c-1 0-1.6.8-2 1.7l-.2 1.6v4c0 .3 0 .4-.2.4a90.5 90.5 0 00-2.6-.3 1607.2 1607.2 0 00.2-10h2.4c.2 0 .3 0 .3.2v1.1z"/></svg>